<svg xmlns="http://www.w3.org/2000/svg" viewBox="0 0 1254 1254" fill="none" xmlns:xlink="http://www.w3.org/1999/xlink"><path d="M349.01 1103.75L349.02 1081.50L369.72 1062.75L390.41 1044.00L597.48 1044.00L804.55 1044.00L825.21 1062.75L845.87 1081.50L845.68 1103.50L845.50 1125.50L597.25 1125.75L349.00 1126.00L349.01 1103.75ZM389.62 1023.25C389.05 1021.31 385.24 993.52 384.79 988.00L384.50 984.50L573.21 984.25L761.92 983.99L762.91 980.25C763.45 978.19 766.85 962.67 770.47 945.78L777.06 915.05L747.40 861.78C705.15 785.90 700.54 777.59 678.76 738.00C668.01 718.48 655.31 695.52 650.53 687.00C645.74 678.48 636.89 662.65 630.86 651.83L619.88 632.16L622.47 604.83C623.90 589.80 625.94 568.05 627.01 556.50C629.25 532.42 629.83 528.40 630.92 529.62C632.07 530.91 673.09 623.37 674.40 627.62C674.80 628.93 676.68 630.35 679.28 631.31C681.60 632.17 703.98 640.32 729.00 649.43C754.02 658.53 783.36 669.25 794.19 673.24L813.89 680.50L823.78 696.00C841.22 723.33 846.95 732.00 847.60 732.00C847.94 732.00 857.74 729.25 869.36 725.90C880.99 722.54 894.55 718.64 899.50 717.23C904.45 715.82 908.65 714.56 908.83 714.42C909.01 714.29 910.48 708.85 912.11 702.34C913.73 695.83 917.32 681.79 920.08 671.14C922.84 660.49 924.97 651.17 924.80 650.44C924.64 649.70 917.30 641.10 908.50 631.33C899.70 621.56 886.03 606.35 878.13 597.53C854.18 570.83 840.18 555.35 825.67 539.55L811.84 524.50L812.48 517.10C812.83 513.03 813.31 508.53 813.56 507.10C813.95 504.80 808.81 499.23 769.66 459.56L725.32 414.61L732.74 392.22C736.81 379.90 739.92 369.59 739.64 369.30C739.08 368.75 730.71 373.20 710.50 384.79L697.50 392.25L676.00 385.13L654.50 378.02L643.50 380.94C589.46 395.25 539.90 424.43 500.50 465.13C477.81 488.56 460.54 512.61 446.14 540.84C423.73 584.78 411.86 630.06 408.82 683.25C404.50 758.94 423.85 842.09 464.57 922.76C469.63 932.80 473.48 941.21 473.10 941.44C472.05 942.08 411.16 965.96 405.25 968.04C402.36 969.06 400.00 969.58 400.00 969.20C400.00 968.81 404.02 962.48 408.92 955.12L417.84 941.73L407.55 930.12C376.18 894.70 352.61 859.02 336.06 821.85C329.74 807.67 320.00 781.46 320.00 778.64C320.00 777.98 321.46 776.58 323.25 775.53C336.36 767.85 376.00 740.81 376.00 739.54C376.00 737.71 376.32 737.75 371.99 739.04C358.57 743.03 313.64 754.97 313.31 754.64C312.51 753.84 308.14 730.28 306.34 717.00C303.73 697.81 303.71 648.34 306.32 629.00C309.03 608.84 313.48 587.15 318.47 569.78C323.38 552.67 324.79 548.98 326.41 549.03C327.01 549.05 343.70 552.37 363.50 556.41C398.03 563.45 401.75 563.89 400.73 560.79C400.61 560.40 385.88 552.67 368.00 543.62C350.12 534.57 335.37 526.54 335.21 525.78C334.83 523.92 347.27 498.90 354.49 487.00C378.66 447.17 411.05 411.10 445.50 385.66C450.45 382.01 454.80 379.01 455.16 379.01C455.76 379.00 464.05 388.82 487.00 416.75C491.64 422.39 495.67 426.99 495.96 426.98C496.26 426.97 497.44 426.18 498.59 425.23C500.69 423.50 500.69 423.50 487.97 395.00C480.97 379.32 475.53 366.19 475.87 365.80C477.16 364.37 495.97 354.55 509.00 348.51C524.39 341.38 541.26 334.41 568.26 324.04L587.02 316.83L598.76 320.81C605.22 323.00 625.12 329.84 643.00 336.00C660.88 342.16 681.94 349.35 689.82 351.98L704.13 356.77L744.17 333.82C766.18 321.19 784.42 311.09 784.69 311.36C785.18 311.85 782.97 320.05 768.47 371.69C764.42 386.10 760.98 398.54 760.81 399.34C760.52 400.70 778.26 420.69 824.26 470.88C836.30 484.01 842.86 491.92 842.57 492.93C842.32 493.79 841.80 498.65 841.43 503.73L840.75 512.95L848.11 521.23C852.16 525.78 861.59 536.25 869.06 544.50C876.53 552.75 888.68 566.28 896.07 574.57C903.46 582.86 916.70 597.69 925.50 607.52C934.30 617.36 945.03 629.40 949.34 634.27L957.18 643.15L950.99 666.82C947.58 679.85 942.15 700.59 938.92 712.93C935.69 725.26 932.66 735.74 932.18 736.22C931.49 736.91 848.00 761.79 837.92 764.31C835.47 764.92 834.35 763.45 815.44 734.94C802.29 715.11 794.85 704.77 793.52 704.49C781.17 701.81 699.40 686.00 697.94 686.00C696.87 686.00 696.00 686.21 696.00 686.47C696.00 686.73 707.32 704.84 721.15 726.72C797.32 847.17 842.00 918.74 842.00 920.29C841.99 920.96 839.24 929.15 835.87 938.50C832.50 947.85 824.22 971.02 817.46 990.00L805.17 1024.50L597.65 1024.75C400.65 1024.99 390.11 1024.92 389.62 1023.25ZM770.39 541.07C766.00 537.44 759.50 530.26 753.42 522.34C748.00 515.28 740.05 505.05 735.76 499.60C731.47 494.16 728.14 489.53 728.35 489.31C728.82 488.84 793.14 511.94 794.31 513.00C795.08 513.69 779.10 547.02 778.01 546.98C777.73 546.98 774.30 544.32 770.39 541.07ZM475.89 337.25C475.30 335.74 473.11 329.77 471.01 324.00C468.92 318.23 458.14 288.58 447.06 258.12C435.99 227.65 427.06 202.31 427.24 201.79C427.41 201.28 430.91 203.28 435.02 206.26C465.94 228.60 526.15 271.17 526.41 270.87C526.59 270.67 534.89 251.15 544.86 227.50C573.46 159.63 586.47 129.80 587.47 129.82C587.97 129.83 593.06 140.78 598.78 154.17C618.97 201.47 630.91 229.73 639.05 249.50C643.58 260.50 647.62 269.88 648.04 270.35C648.45 270.81 664.03 260.26 682.65 246.90C733.05 210.73 747.17 200.83 747.65 201.32C748.24 201.91 700.67 332.67 699.41 333.91C698.86 334.46 684.83 329.77 614.86 305.65L587.21 296.13L561.36 306.09C530.57 317.95 505.73 327.99 490.05 334.93C483.75 337.72 478.22 340.00 477.77 340.00C477.32 340.00 476.47 338.76 475.89 337.25Z" fill="currentColor"/></svg>